<?xml version="1.0" encoding="UTF-8" standalone="no"?>
<!DOCTYPE svg PUBLIC "-//W3C//DTD SVG 1.1//EN" "http://www.w3.org/Graphics/SVG/1.1/DTD/svg11.dtd">
<svg width="100%" height="100%" viewBox="0 0 2778 2778" version="1.1" xmlns="http://www.w3.org/2000/svg" xmlns:xlink="http://www.w3.org/1999/xlink" xml:space="preserve" xmlns:serif="http://www.serif.com/" style="fill-rule:evenodd;clip-rule:evenodd;stroke-linejoin:round;stroke-miterlimit:2;">
    <g transform="matrix(5.55556,0,0,5.55556,0,0)">
        <g id="Layer-1" serif:id="Layer 1">
            <path d="M42.969,84.344L456.8,79.498L459.215,416.218L34.977,409.675L42.969,84.344Z" style="fill:white;"/>
            <g transform="matrix(570.369,329.303,329.303,-570.369,-35.7009,85.9096)">
                <path d="M0.019,0.162C-0,0.146 -0.006,0.119 0.007,0.097L0.336,-0.473C0.35,-0.497 0.381,-0.506 0.405,-0.492L0.975,-0.163C0.999,-0.149 1.007,-0.118 0.993,-0.094L0.664,0.476C0.651,0.498 0.625,0.507 0.602,0.498L0.019,0.162ZM0.172,0.01C0.165,0.022 0.164,0.036 0.167,0.048C0.17,0.061 0.178,0.072 0.191,0.079L0.335,0.162C0.393,0.196 0.446,0.209 0.507,0.197C0.553,0.189 0.589,0.166 0.619,0.129L0.695,0.173C0.719,0.187 0.75,0.178 0.764,0.154C0.771,0.142 0.772,0.128 0.769,0.116C0.765,0.103 0.757,0.092 0.745,0.085L0.67,0.042C0.686,-0.002 0.688,-0.045 0.672,-0.09C0.653,-0.148 0.615,-0.187 0.556,-0.221L0.412,-0.304C0.4,-0.311 0.386,-0.313 0.374,-0.309C0.361,-0.306 0.35,-0.298 0.343,-0.286C0.329,-0.262 0.337,-0.231 0.361,-0.217L0.523,-0.124C0.551,-0.107 0.571,-0.083 0.578,-0.055C0.582,-0.04 0.581,-0.026 0.578,-0.011L0.327,-0.157C0.302,-0.17 0.271,-0.162 0.257,-0.138C0.25,-0.126 0.249,-0.112 0.252,-0.1C0.256,-0.087 0.264,-0.076 0.276,-0.069L0.528,0.076C0.517,0.086 0.504,0.094 0.49,0.098C0.462,0.106 0.432,0.101 0.403,0.085L0.241,-0.009C0.217,-0.023 0.186,-0.014 0.172,0.01Z" style="fill:url(#_Linear1);fill-rule:nonzero;"/>
            </g>
        </g>
    </g>
    <defs>
        <linearGradient id="_Linear1" x1="0" y1="0" x2="1" y2="0" gradientUnits="userSpaceOnUse" gradientTransform="matrix(1,5.55112e-17,5.55112e-17,-1,0,0.00156795)"><stop offset="0" style="stop-color:rgb(255,0,93);stop-opacity:1"/><stop offset="1" style="stop-color:rgb(255,121,0);stop-opacity:1"/></linearGradient>
    </defs>
</svg>
