<svg width="547" height="118" viewBox="0 0 547 118" fill="none" xmlns="http://www.w3.org/2000/svg">
<g clip-path="url(#clip0_1020_89)">
<path fill-rule="evenodd" clip-rule="evenodd" d="M10.1399 19.9036L107.796 18.76L108.366 98.2196L8.25391 96.6756L10.1399 19.9036Z" fill="white"/>
<path d="M6.72151 -0.0552596C2.92083 0.621809 0.0150977 3.78966 0.0552478 7.761L0.0431422 110.047C0.0624686 114.366 3.53557 117.986 7.85382 117.967L110.14 117.979C114.458 117.959 117.944 114.409 117.925 110.09L117.937 7.804C117.897 3.83267 115.097 0.600848 111.302 0.0249078L6.72151 -0.0552596ZM15.5029 32.2929C15.4933 30.1338 16.4466 28.1717 17.7829 26.7897C19.1969 25.2731 21.1285 24.4142 23.4222 24.4823L49.254 24.5009C59.7027 24.4318 67.8465 26.8006 75.1244 33.156C80.6942 37.8074 83.7523 43.7007 84.915 51.012L98.5635 50.9957C102.882 50.9764 106.355 54.5967 106.374 58.915C106.384 61.0741 105.431 63.0362 104.094 64.4182C102.546 65.8571 100.614 66.716 98.4549 66.7257L85.0187 66.6851C83.753 73.8507 80.6807 79.7938 75.0302 84.6073C67.9658 90.9374 59.8204 93.2337 49.2371 93.2251L23.4054 93.2065C21.2462 93.2161 19.2065 92.3974 17.9021 90.9265C16.3855 89.5125 15.5266 87.5809 15.517 85.4218C15.4976 81.1035 18.9834 77.5527 23.3016 77.5334L52.3332 77.6048C57.423 77.4926 61.98 75.8164 65.098 72.5917C66.802 70.8836 67.7554 68.9215 68.5172 66.6695L23.3879 66.8155C19.0128 66.6225 15.462 63.1367 15.4427 58.8185C15.433 56.6594 16.3863 54.6973 17.7226 53.3153C19.2712 51.8764 21.2028 51.0175 23.3619 51.0078L68.5481 51.0741C67.8446 48.8733 66.7166 46.7863 65.143 45.16C61.996 41.9074 57.5696 40.2491 52.4229 40.1491L23.3136 40.2122C18.9954 40.2315 15.5223 36.6112 15.5029 32.2929Z" fill="url(#paint0_linear_1020_89)"/>
</g>
<path d="M159.119 97V18.6H186.335C195.445 18.6 202.986 20.2427 208.959 23.528C214.933 26.7387 219.338 31.2933 222.175 37.192C225.087 43.016 226.543 49.8853 226.543 57.8C226.543 65.7147 225.087 72.6213 222.175 78.52C219.338 84.344 214.933 88.8987 208.959 92.184C203.061 95.3947 195.519 97 186.335 97H159.119ZM174.239 84.008H185.551C191.973 84.008 197.05 82.9627 200.783 80.872C204.517 78.7813 207.167 75.7947 208.735 71.912C210.303 67.9547 211.087 63.2507 211.087 57.8C211.087 52.2747 210.303 47.5707 208.735 43.688C207.167 39.7307 204.517 36.7067 200.783 34.616C197.05 32.5253 191.973 31.48 185.551 31.48H174.239V84.008ZM259.543 98.344C254.167 98.344 249.314 97.112 244.983 94.648C240.652 92.184 237.218 88.7493 234.679 84.344C232.215 79.9387 230.983 74.8987 230.983 69.224C230.983 63.4747 232.252 58.4347 234.791 54.104C237.33 49.6987 240.764 46.264 245.095 43.8C249.426 41.336 254.242 40.104 259.543 40.104C264.919 40.104 269.772 41.336 274.103 43.8C278.434 46.264 281.831 49.6987 284.295 54.104C286.834 58.4347 288.103 63.4747 288.103 69.224C288.103 74.9733 286.834 80.0507 284.295 84.456C281.756 88.7867 278.322 92.184 273.991 94.648C269.735 97.112 264.919 98.344 259.543 98.344ZM259.431 85.576C261.895 85.576 264.098 84.9787 266.039 83.784C268.055 82.5893 269.66 80.7973 270.855 78.408C272.05 75.944 272.647 72.8827 272.647 69.224C272.647 65.5653 272.05 62.5413 270.855 60.152C269.66 57.688 268.055 55.8587 266.039 54.664C264.098 53.4693 261.97 52.872 259.655 52.872C257.266 52.872 255.063 53.4693 253.047 54.664C251.031 55.8587 249.426 57.688 248.231 60.152C247.036 62.5413 246.439 65.5653 246.439 69.224C246.439 72.8827 247.036 75.944 248.231 78.408C249.426 80.7973 250.994 82.5893 252.935 83.784C254.951 84.9787 257.116 85.576 259.431 85.576ZM320.647 98.344C314.748 98.344 309.596 97.112 305.191 94.648C300.86 92.1093 297.463 88.6747 294.999 84.344C292.61 79.9387 291.415 74.8987 291.415 69.224C291.415 63.5493 292.647 58.5467 295.111 54.216C297.575 49.8107 301.01 46.376 305.415 43.912C309.82 41.3733 314.898 40.104 320.647 40.104C327.815 40.104 333.826 41.9707 338.679 45.704C343.607 49.4373 346.743 54.5893 348.087 61.16H332.071C331.474 58.472 330.092 56.3813 327.927 54.888C325.836 53.3947 323.372 52.648 320.535 52.648C317.922 52.648 315.57 53.32 313.479 54.664C311.463 55.9333 309.858 57.8 308.663 60.264C307.468 62.728 306.871 65.7147 306.871 69.224C306.871 71.7627 307.207 74.04 307.879 76.056C308.551 78.072 309.484 79.7893 310.679 81.208C311.874 82.6267 313.292 83.7093 314.935 84.456C316.652 85.128 318.519 85.464 320.535 85.464C322.476 85.464 324.231 85.1653 325.799 84.568C327.367 83.896 328.711 82.9627 329.831 81.768C330.951 80.4987 331.698 79.0053 332.071 77.288H348.087C346.743 83.7093 343.607 88.824 338.679 92.632C333.826 96.44 327.815 98.344 320.647 98.344ZM357.233 97V37.752C357.233 33.048 358.017 29.3147 359.585 26.552C361.228 23.7893 363.505 21.7733 366.417 20.504C369.329 19.2347 372.764 18.6 376.721 18.6H382.881V31.144H379.073C376.684 31.144 374.967 31.6293 373.921 32.6C372.876 33.5707 372.353 35.2133 372.353 37.528V97H357.233ZM349.729 53.544V41.448H384.113V53.544H349.729ZM414.37 98.344C408.994 98.344 404.141 97.112 399.81 94.648C395.479 92.184 392.045 88.7493 389.506 84.344C387.042 79.9387 385.81 74.8987 385.81 69.224C385.81 63.4747 387.079 58.4347 389.618 54.104C392.157 49.6987 395.591 46.264 399.922 43.8C404.253 41.336 409.069 40.104 414.37 40.104C419.746 40.104 424.599 41.336 428.93 43.8C433.261 46.264 436.658 49.6987 439.122 54.104C441.661 58.4347 442.93 63.4747 442.93 69.224C442.93 74.9733 441.661 80.0507 439.122 84.456C436.583 88.7867 433.149 92.184 428.818 94.648C424.562 97.112 419.746 98.344 414.37 98.344ZM414.258 85.576C416.722 85.576 418.925 84.9787 420.866 83.784C422.882 82.5893 424.487 80.7973 425.682 78.408C426.877 75.944 427.474 72.8827 427.474 69.224C427.474 65.5653 426.877 62.5413 425.682 60.152C424.487 57.688 422.882 55.8587 420.866 54.664C418.925 53.4693 416.797 52.872 414.482 52.872C412.093 52.872 409.89 53.4693 407.874 54.664C405.858 55.8587 404.253 57.688 403.058 60.152C401.863 62.5413 401.266 65.5653 401.266 69.224C401.266 72.8827 401.863 75.944 403.058 78.408C404.253 80.7973 405.821 82.5893 407.762 83.784C409.778 84.9787 411.943 85.576 414.258 85.576ZM447.922 97V41.448H460.802L462.146 53.656H462.594C464.237 49.6987 466.029 46.7867 467.97 44.92C469.911 42.9787 472.114 41.7093 474.578 41.112C477.117 40.44 479.954 40.104 483.09 40.104V56.12H478.946C476.407 56.12 474.13 56.4187 472.114 57.016C470.173 57.5387 468.53 58.4347 467.186 59.704C465.842 60.8987 464.797 62.504 464.05 64.52C463.378 66.536 463.042 68.9627 463.042 71.8V97H447.922ZM523.676 97L499.372 66.424L520.764 41.448H538.684L511.02 72.696L510.908 60.712L542.38 97H523.676ZM486.492 97V18.6H501.612V97H486.492Z" fill="#121212"/>
<defs>
<linearGradient id="paint0_linear_1020_89" x1="-8.30289" y1="20.0618" x2="126.294" y2="97.7712" gradientUnits="userSpaceOnUse">
<stop stop-color="#FF005D"/>
<stop offset="1" stop-color="#FF7900"/>
</linearGradient>
<clipPath id="clip0_1020_89">
<rect width="118" height="118" rx="8" fill="white"/>
</clipPath>
</defs>
</svg>
